# xmcd
# 
# Track frame offsets:
#     182
#     12902
#     27505
#     40100
#     53045
#     67372
#     79107
#     91287
#     104097
#     117815
#     129612
#     142265
#     153872
#     165647
# 
# Disc length: 2351
# 
# Revision: 1
# Processed by: cddbd v1.5.2PL0 Copyright (c) Steve Scherf et al.
# Submitted via: fre:ac v1.0.31
# 
DISCID=c1092d0e
DTITLE=Roots of Rhythm - I Feel Good
DYEAR=1999
DGENRE=R&B
TTITLE0=James Brown/ I Got You (I Feel Good)
TTITLE1=Aretha Franklin/Rock Steady
TTITLE2=J. J. Jackson/But It's Alright
TTITLE3=Sam and Dave/I Thank You
TTITLE4=LaVern Baker/Tweedlee Dee
TTITLE5=Bobby Day/Rockin' Robin
TTITLE6=Otis Redding/The Happy Song (Dum-Dum)
TTITLE7=Etta James/Something's got a Hold on Me
TTITLE8=B. B. King/Sweet Little Angel
TTITLE9=Hand Ballard and the Midnighters/Finger Poppin' Time
TTITLE10=Tommy Ridgley/ Jam Up
TTITLE11=Earl King/Come On
TTITLE12=The Drifters/Up on the Roof
TTITLE13=Shirley and Lee/Let the Good Times Roll
EXTD=
EXTT0=
EXTT1=
EXTT2=
EXTT3=
EXTT4=
EXTT5=
EXTT6=
EXTT7=
EXTT8=
EXTT9=
EXTT10=
EXTT11=
EXTT12=
EXTT13=
PLAYORDER=
